<?xml version="1.0" standalone="no"?>
<!DOCTYPE svg PUBLIC "-//W3C//DTD SVG 20010904//EN"
 "http://www.w3.org/TR/2001/REC-SVG-20010904/DTD/svg10.dtd">
<svg version="1.0" xmlns="http://www.w3.org/2000/svg"
 width="700.000000pt" height="700.000000pt" viewBox="0 0 700.000000 700.000000"
 preserveAspectRatio="xMidYMid meet">
<metadata>
Created by potrace 1.11, written by Peter Selinger 2001-2013
</metadata>
<g transform="translate(0.000000,700.000000) scale(0.100000,-0.100000)"
fill="#000000" stroke="none">
<path d="M3269 6886 c-2 -2 -42 -7 -89 -11 -47 -4 -94 -9 -105 -11 -11 -2 -42
-6 -70 -9 -121 -14 -374 -73 -545 -127 -232 -74 -565 -227 -718 -329 -24 -16
-45 -29 -47 -29 -6 0 -199 -132 -205 -140 -3 -4 -12 -11 -21 -16 -57 -32 -248
-200 -379 -332 -218 -222 -331 -366 -494 -634 -172 -281 -341 -692 -392 -951
-2 -10 -5 -26 -8 -35 -3 -9 -7 -28 -10 -42 -3 -14 -7 -35 -10 -46 -2 -12 -7
-37 -10 -55 -3 -19 -8 -43 -10 -55 -2 -12 -8 -45 -11 -75 -4 -30 -9 -65 -11
-79 -25 -170 -25 -691 1 -828 1 -10 6 -42 10 -72 55 -426 232 -906 480 -1305
82 -132 210 -307 314 -429 33 -39 274 -280 326 -327 118 -105 356 -277 517
-372 217 -128 539 -269 738 -323 216 -59 365 -92 493 -109 27 -4 57 -8 66 -10
102 -20 610 -28 736 -12 33 4 80 10 105 13 283 33 620 122 880 232 428 181
776 416 1100 742 198 199 318 350 495 624 40 62 188 348 220 426 10 25 27 64
36 86 19 44 108 304 114 332 2 10 11 46 20 82 9 36 19 74 21 85 2 11 8 40 14
65 10 46 25 134 35 205 4 22 8 50 10 62 20 125 28 585 12 733 -5 41 -10 91
-12 110 -3 31 -14 103 -30 195 -3 17 -12 62 -21 100 -9 39 -18 80 -20 92 -16
83 -98 335 -157 483 -30 76 -151 321 -200 405 -147 255 -317 475 -527 685
-228 228 -396 363 -646 516 -95 58 -393 214 -409 214 -3 0 -24 9 -48 19 -184
84 -528 183 -757 217 -19 3 -46 7 -60 10 -14 2 -52 6 -85 10 -33 3 -71 8 -85
11 -28 6 -546 14 -551 9z m361 -2190 c399 -40 763 -294 949 -664 34 -68 86
-216 96 -272 3 -19 8 -42 10 -50 16 -60 22 -264 10 -350 -56 -418 -297 -757
-666 -938 -167 -82 -327 -120 -519 -123 -370 -7 -738 172 -962 468 -58 76
-128 189 -128 206 0 7 -4 17 -9 23 -17 16 -51 114 -76 213 -44 176 -49 315
-18 511 21 141 121 370 215 495 208 276 523 453 854 481 44 4 80 7 81 8 4 3
99 -2 163 -8z"/>
</g>
</svg>
